<svg width="77" height="44" viewBox="0 0 77 44" fill="none" xmlns="http://www.w3.org/2000/svg">
<g clip-path="url(#paint0_angular_178_47_clip_path)" data-figma-skip-parse="true"><g transform="matrix(0.0196058 -0.0061943 0.00521692 0.0165123 43.2804 0.678827)"><foreignObject x="-1314.75" y="-1314.75" width="2629.51" height="2629.51"><div xmlns="http://www.w3.org/1999/xhtml" style="background:conic-gradient(from 90deg,rgba(234, 153, 225, 1) 0deg,rgba(245, 162, 223, 1) 19.945deg,rgba(142, 75, 251, 1) 175.391deg,rgba(234, 153, 225, 1) 360deg);height:100%;width:100%;opacity:1"></div></foreignObject></g></g><path d="M25.873 1.68583L22.1519 17.017H66.9637L63.1167 1.60357C62.9331 0.86794 62.0347 0.579027 61.4313 1.03807C58.8173 3.02653 55.3285 5.00635 53.0809 5.00635C50.0686 5.00635 46.2408 0.763683 43.5137 0.763683C40.7867 0.763683 37.6376 5.11243 34.9564 5.11243C32.8764 5.11243 29.4342 2.61147 27.5693 1.12261C26.9696 0.643882 26.054 0.940178 25.873 1.68583Z" data-figma-gradient-fill="{&#34;type&#34;:&#34;GRADIENT_ANGULAR&#34;,&#34;stops&#34;:[{&#34;color&#34;:{&#34;r&#34;:0.96078431606292725,&#34;g&#34;:0.63529413938522339,&#34;b&#34;:0.87450981140136719,&#34;a&#34;:1.0},&#34;position&#34;:0.055402826517820358},{&#34;color&#34;:{&#34;r&#34;:0.55686277151107788,&#34;g&#34;:0.29411765933036804,&#34;b&#34;:0.98431372642517090,&#34;a&#34;:1.0},&#34;position&#34;:0.48719823360443115}],&#34;stopsVar&#34;:[{&#34;color&#34;:{&#34;r&#34;:0.96078431606292725,&#34;g&#34;:0.63529413938522339,&#34;b&#34;:0.87450981140136719,&#34;a&#34;:1.0},&#34;position&#34;:0.055402826517820358},{&#34;color&#34;:{&#34;r&#34;:0.55686277151107788,&#34;g&#34;:0.29411765933036804,&#34;b&#34;:0.98431372642517090,&#34;a&#34;:1.0},&#34;position&#34;:0.48719823360443115}],&#34;transform&#34;:{&#34;m00&#34;:39.211582183837891,&#34;m01&#34;:10.433839797973633,&#34;m02&#34;:18.457653045654297,&#34;m10&#34;:-12.388590812683105,&#34;m11&#34;:33.024524688720703,&#34;m12&#34;:-9.6391391754150391},&#34;opacity&#34;:1.0,&#34;blendMode&#34;:&#34;NORMAL&#34;,&#34;visible&#34;:true}"/>
<g filter="url(#filter0_dddd_178_47)">
<g clip-path="url(#paint1_angular_178_47_clip_path)" data-figma-skip-parse="true"><g transform="matrix(0.0101612 0.0019092 -0.00103421 0.00550429 47.7352 15.0402)"><foreignObject x="-2647.83" y="-2647.83" width="5295.66" height="5295.66"><div xmlns="http://www.w3.org/1999/xhtml" style="background:conic-gradient(from 90deg,rgba(243, 161, 223, 1) 0deg,rgba(142, 75, 251, 1) 183.617deg,rgba(245, 162, 223, 1) 357.941deg,rgba(243, 161, 223, 1) 360deg);height:100%;width:100%;opacity:1"></div></foreignObject></g></g><path d="M20.4029 15.5925L21.9865 23.241C22.081 23.6976 22.4779 24.0318 22.9436 24.0518C39.0253 24.7406 49.6075 24.8418 66.1797 24.0548C66.6374 24.0331 67.0285 23.7076 67.1286 23.2605L68.5532 16.8991C68.7267 16.1245 67.985 15.4559 67.2198 15.667C64.7285 16.3543 62.4777 16.584 58.8533 16.584C53.3078 16.584 43.5529 13.8311 38.7534 13.8311C34.842 13.8311 25.4204 14.2134 21.3608 14.3656C20.7299 14.3892 20.2748 14.9742 20.4029 15.5925Z" data-figma-gradient-fill="{&#34;type&#34;:&#34;GRADIENT_ANGULAR&#34;,&#34;stops&#34;:[{&#34;color&#34;:{&#34;r&#34;:0.55686277151107788,&#34;g&#34;:0.29411765933036804,&#34;b&#34;:0.98431372642517090,&#34;a&#34;:1.0},&#34;position&#34;:0.51004779338836670},{&#34;color&#34;:{&#34;r&#34;:0.96078431606292725,&#34;g&#34;:0.63529413938522339,&#34;b&#34;:0.87450981140136719,&#34;a&#34;:1.0},&#34;position&#34;:0.99428158998489380}],&#34;stopsVar&#34;:[{&#34;color&#34;:{&#34;r&#34;:0.55686277151107788,&#34;g&#34;:0.29411765933036804,&#34;b&#34;:0.98431372642517090,&#34;a&#34;:1.0},&#34;position&#34;:0.51004779338836670},{&#34;color&#34;:{&#34;r&#34;:0.96078431606292725,&#34;g&#34;:0.63529413938522339,&#34;b&#34;:0.87450981140136719,&#34;a&#34;:1.0},&#34;position&#34;:0.99428158998489380}],&#34;transform&#34;:{&#34;m00&#34;:20.322402954101562,&#34;m01&#34;:-2.0684168338775635,&#34;m02&#34;:38.608215332031250,&#34;m10&#34;:3.8184063434600830,&#34;m11&#34;:11.008572578430176,&#34;m12&#34;:7.6267266273498535},&#34;opacity&#34;:1.0,&#34;blendMode&#34;:&#34;NORMAL&#34;,&#34;visible&#34;:true}"/>
</g>
<g filter="url(#filter1_dddd_178_47)">
<g clip-path="url(#paint2_angular_178_47_clip_path)" data-figma-skip-parse="true"><g transform="matrix(0.0234464 0.000715465 0.000163636 -0.00536248 51.1716 20.3649)"><foreignObject x="-2397.13" y="-2397.13" width="4794.26" height="4794.26"><div xmlns="http://www.w3.org/1999/xhtml" style="background:conic-gradient(from 90deg,rgba(240, 157, 224, 1) 0deg,rgba(245, 162, 223, 1) 7.33085deg,rgba(142, 75, 251, 1) 209.105deg,rgba(240, 157, 224, 1) 360deg);height:100%;width:100%;opacity:1"></div></foreignObject></g></g><path d="M71.0365 22.1918L69.263 30.7481C69.1684 31.2046 68.7712 31.5387 68.3055 31.5587C50.6189 32.3166 39.0098 32.4282 20.7836 31.5618C20.326 31.54 19.9345 31.2146 19.8343 30.7676L18.2199 23.5663C18.0463 22.7918 18.7878 22.1231 19.5518 22.3385C22.3484 23.1269 24.8334 23.3886 28.8851 23.3886C34.9611 23.3886 45.649 20.3755 50.9076 20.3755C55.2298 20.3755 65.6931 20.8012 70.0767 20.9648C70.7078 20.9883 71.1647 21.5734 71.0365 22.1918Z" data-figma-gradient-fill="{&#34;type&#34;:&#34;GRADIENT_ANGULAR&#34;,&#34;stops&#34;:[{&#34;color&#34;:{&#34;r&#34;:0.96078431606292725,&#34;g&#34;:0.63529413938522339,&#34;b&#34;:0.87450981140136719,&#34;a&#34;:1.0},&#34;position&#34;:0.020363466814160347},{&#34;color&#34;:{&#34;r&#34;:0.55686277151107788,&#34;g&#34;:0.29411765933036804,&#34;b&#34;:0.98431372642517090,&#34;a&#34;:1.0},&#34;position&#34;:0.58084613084793091}],&#34;stopsVar&#34;:[{&#34;color&#34;:{&#34;r&#34;:0.96078431606292725,&#34;g&#34;:0.63529413938522339,&#34;b&#34;:0.87450981140136719,&#34;a&#34;:1.0},&#34;position&#34;:0.020363466814160347},{&#34;color&#34;:{&#34;r&#34;:0.55686277151107788,&#34;g&#34;:0.29411765933036804,&#34;b&#34;:0.98431372642517090,&#34;a&#34;:1.0},&#34;position&#34;:0.58084613084793091}],&#34;transform&#34;:{&#34;m00&#34;:46.892810821533203,&#34;m01&#34;:0.32727164030075073,&#34;m02&#34;:27.561552047729492,&#34;m10&#34;:1.4309308528900146,&#34;m11&#34;:-10.724969863891602,&#34;m12&#34;:25.011899948120117},&#34;opacity&#34;:1.0,&#34;blendMode&#34;:&#34;NORMAL&#34;,&#34;visible&#34;:true}"/>
</g>
<g filter="url(#filter2_dddd_178_47)">
<g clip-path="url(#paint3_angular_178_47_clip_path)" data-figma-skip-parse="true"><g transform="matrix(0.0183215 -0.00206931 -0.00131251 -0.0116208 56.3446 26.4892)"><foreignObject x="-2259.09" y="-2259.09" width="4518.18" height="4518.18"><div xmlns="http://www.w3.org/1999/xhtml" style="background:conic-gradient(from 90deg,rgba(245, 162, 223, 1) 0deg,rgba(142, 75, 251, 1) 195.577deg,rgba(245, 162, 223, 1) 360deg);height:100%;width:100%;opacity:1"></div></foreignObject></g></g><path d="M72.8812 28.2152L70.926 38.3773C70.8387 38.8313 70.46 39.1694 69.9987 39.1995C53.6595 40.2644 32.6224 40.267 19.0691 39.2072C18.625 39.1725 18.2622 38.8517 18.1649 38.417L16.3469 30.2929C16.1848 29.5684 16.8245 28.9198 17.5505 29.0754C22.0297 30.0352 29.9128 31.6719 34.5115 31.6719C41.0022 31.6719 51.5095 26.644 57.127 26.644C61.7201 26.644 68.1539 26.8732 71.9178 27.0043C72.543 27.0261 72.9994 27.6008 72.8812 28.2152Z" data-figma-gradient-fill="{&#34;type&#34;:&#34;GRADIENT_ANGULAR&#34;,&#34;stops&#34;:[{&#34;color&#34;:{&#34;r&#34;:0.96078431606292725,&#34;g&#34;:0.63529413938522339,&#34;b&#34;:0.87450981140136719,&#34;a&#34;:1.0},&#34;position&#34;:0.0},{&#34;color&#34;:{&#34;r&#34;:0.55686277151107788,&#34;g&#34;:0.29411765933036804,&#34;b&#34;:0.98431372642517090,&#34;a&#34;:1.0},&#34;position&#34;:0.54326921701431274}],&#34;stopsVar&#34;:[{&#34;color&#34;:{&#34;r&#34;:0.96078431606292725,&#34;g&#34;:0.63529413938522339,&#34;b&#34;:0.87450981140136719,&#34;a&#34;:1.0},&#34;position&#34;:0.0},{&#34;color&#34;:{&#34;r&#34;:0.55686277151107788,&#34;g&#34;:0.29411765933036804,&#34;b&#34;:0.98431372642517090,&#34;a&#34;:1.0},&#34;position&#34;:0.54326921701431274}],&#34;transform&#34;:{&#34;m00&#34;:36.642978668212891,&#34;m01&#34;:-2.625021219253540,&#34;m02&#34;:39.335636138916016,&#34;m10&#34;:-4.1386280059814453,&#34;m11&#34;:-23.241661071777344,&#34;m12&#34;:40.179393768310547},&#34;opacity&#34;:1.0,&#34;blendMode&#34;:&#34;NORMAL&#34;,&#34;visible&#34;:true}"/>
</g>
<g style="mix-blend-mode:multiply">
<path d="M36.7563 37.1676H37.4714C37.457 37.402 37.3924 37.6101 37.2776 37.7918C37.1644 37.9736 37.0058 38.1155 36.8017 38.2175C36.5992 38.3196 36.3553 38.3706 36.0699 38.3706C35.8467 38.3706 35.6466 38.3323 35.4696 38.2558C35.2926 38.1777 35.1412 38.0661 35.0152 37.921C34.8908 37.7759 34.796 37.6005 34.7306 37.3948C34.6652 37.1891 34.6326 36.9588 34.6326 36.7037V36.4621C34.6326 36.207 34.666 35.9766 34.733 35.7709C34.8016 35.5637 34.8988 35.3875 35.0248 35.2424C35.1523 35.0973 35.3046 34.9857 35.4816 34.9076C35.6585 34.8295 35.8562 34.7904 36.0747 34.7904C36.3649 34.7904 36.6096 34.843 36.8089 34.9482C37.0098 35.0535 37.1652 35.1986 37.2753 35.3835C37.3869 35.5684 37.4538 35.7789 37.4761 36.0149H36.7587C36.7507 35.8746 36.7228 35.7558 36.675 35.6585C36.6271 35.5597 36.5546 35.4855 36.4573 35.4361C36.3617 35.3851 36.2341 35.3596 36.0747 35.3596C35.9551 35.3596 35.8507 35.3819 35.7614 35.4265C35.6721 35.4712 35.5972 35.539 35.5366 35.6298C35.476 35.7207 35.4305 35.8355 35.4003 35.9742C35.3716 36.1113 35.3572 36.2724 35.3572 36.4573V36.7037C35.3572 36.8838 35.3708 37.0425 35.3979 37.1796C35.425 37.3151 35.4664 37.4299 35.5222 37.524C35.5796 37.6164 35.653 37.6866 35.7422 37.7344C35.8331 37.7807 35.9423 37.8038 36.0699 37.8038C36.2198 37.8038 36.3433 37.7799 36.4406 37.732C36.5378 37.6842 36.612 37.6133 36.663 37.5192C36.7156 37.4251 36.7467 37.3079 36.7563 37.1676ZM40.8028 36.5004V36.6654C40.8028 36.9301 40.767 37.1676 40.6952 37.3781C40.6235 37.5885 40.5222 37.7679 40.3915 37.9162C40.2607 38.0629 40.1045 38.1753 39.9227 38.2534C39.7426 38.3315 39.5425 38.3706 39.3224 38.3706C39.104 38.3706 38.9039 38.3315 38.7222 38.2534C38.542 38.1753 38.3857 38.0629 38.2534 37.9162C38.1211 37.7679 38.0182 37.5885 37.9449 37.3781C37.8731 37.1676 37.8373 36.9301 37.8373 36.6654V36.5004C37.8373 36.2341 37.8731 35.9965 37.9449 35.7877C38.0166 35.5772 38.1179 35.3978 38.2486 35.2496C38.381 35.1013 38.5372 34.9881 38.7174 34.91C38.8991 34.8318 39.0992 34.7928 39.3177 34.7928C39.5377 34.7928 39.7378 34.8318 39.918 34.91C40.0997 34.9881 40.256 35.1013 40.3867 35.2496C40.519 35.3978 40.6211 35.5772 40.6928 35.7877C40.7662 35.9965 40.8028 36.2341 40.8028 36.5004ZM40.0782 36.6654V36.4956C40.0782 36.3106 40.0614 36.148 40.028 36.0077C39.9945 35.8674 39.9451 35.7494 39.8797 35.6537C39.8143 35.5581 39.7346 35.4863 39.6405 35.4385C39.5465 35.3891 39.4388 35.3644 39.3177 35.3644C39.1965 35.3644 39.0889 35.3891 38.9948 35.4385C38.9023 35.4863 38.8234 35.5581 38.758 35.6537C38.6943 35.7494 38.6456 35.8674 38.6121 36.0077C38.5787 36.148 38.5619 36.3106 38.5619 36.4956V36.6654C38.5619 36.8487 38.5787 37.0114 38.6121 37.1533C38.6456 37.2936 38.6951 37.4124 38.7604 37.5096C38.8258 37.6053 38.9055 37.6778 38.9996 37.7273C39.0937 37.7767 39.2013 37.8014 39.3224 37.8014C39.4436 37.8014 39.5512 37.7767 39.6453 37.7273C39.7394 37.6778 39.8183 37.6053 39.8821 37.5096C39.9459 37.4124 39.9945 37.2936 40.028 37.1533C40.0614 37.0114 40.0782 36.8487 40.0782 36.6654ZM41.6471 34.8406H42.2545L43.149 37.3972L44.0434 34.8406H44.6509L43.3929 38.3228H42.905L41.6471 34.8406ZM41.3194 34.8406H41.9245L42.0345 37.3326V38.3228H41.3194V34.8406ZM44.3735 34.8406H44.9809V38.3228H44.2635V37.3326L44.3735 34.8406ZM46.9659 37.0815H46.0787V36.5219H46.9659C47.1031 36.5219 47.2147 36.4996 47.3008 36.4549C47.3869 36.4087 47.4498 36.3449 47.4897 36.2636C47.5296 36.1823 47.5495 36.0906 47.5495 35.9886C47.5495 35.8849 47.5296 35.7885 47.4897 35.6992C47.4498 35.6099 47.3869 35.5382 47.3008 35.4839C47.2147 35.4297 47.1031 35.4026 46.9659 35.4026H46.3274V38.3228H45.6099V34.8406H46.9659C47.2386 34.8406 47.4722 34.89 47.6667 34.9889C47.8628 35.0861 48.0127 35.2209 48.1163 35.3931C48.2199 35.5653 48.2717 35.7622 48.2717 35.9838C48.2717 36.2086 48.2199 36.4031 48.1163 36.5673C48.0127 36.7316 47.8628 36.8583 47.6667 36.9476C47.4722 37.0369 47.2386 37.0815 46.9659 37.0815ZM48.7668 34.8406H50.0654C50.3317 34.8406 50.5605 34.8805 50.7518 34.9602C50.9447 35.0399 51.093 35.1579 51.1966 35.3141C51.3003 35.4704 51.3521 35.6625 51.3521 35.8905C51.3521 36.0771 51.3202 36.2373 51.2564 36.3712C51.1943 36.5036 51.1058 36.6144 50.991 36.7037C50.8778 36.7913 50.7446 36.8615 50.5916 36.9141L50.3644 37.0337H49.2356L49.2308 36.4741H50.0702C50.1962 36.4741 50.3006 36.4517 50.3835 36.4071C50.4664 36.3625 50.5286 36.3003 50.5701 36.2206C50.6131 36.1408 50.6346 36.0484 50.6346 35.9431C50.6346 35.8315 50.6139 35.7351 50.5724 35.6537C50.531 35.5724 50.468 35.5103 50.3835 35.4672C50.299 35.4242 50.193 35.4026 50.0654 35.4026H49.4843V38.3228H48.7668V34.8406ZM50.7135 38.3228L49.9195 36.7706L50.6777 36.7658L51.4812 38.2893V38.3228H50.7135ZM54.2411 37.7631V38.3228H52.3877V37.7631H54.2411ZM52.622 34.8406V38.3228H51.9046V34.8406H52.622ZM53.9996 36.2588V36.8041H52.3877V36.2588H53.9996ZM54.2387 34.8406V35.4026H52.3877V34.8406H54.2387Z" fill="white"/>
</g>
<defs>
<clipPath id="paint0_angular_178_47_clip_path"><path d="M25.873 1.68583L22.1519 17.017H66.9637L63.1167 1.60357C62.9331 0.86794 62.0347 0.579027 61.4313 1.03807C58.8173 3.02653 55.3285 5.00635 53.0809 5.00635C50.0686 5.00635 46.2408 0.763683 43.5137 0.763683C40.7867 0.763683 37.6376 5.11243 34.9564 5.11243C32.8764 5.11243 29.4342 2.61147 27.5693 1.12261C26.9696 0.643882 26.054 0.940178 25.873 1.68583Z"/></clipPath><filter id="filter0_dddd_178_47" x="1.16195" y="1.73946" width="72.3807" height="25.5847" filterUnits="userSpaceOnUse" color-interpolation-filters="sRGB">
<feFlood flood-opacity="0" result="BackgroundImageFix"/>
<feColorMatrix in="SourceAlpha" type="matrix" values="0 0 0 0 0 0 0 0 0 0 0 0 0 0 0 0 0 0 127 0" result="hardAlpha"/>
<feOffset dx="-0.848533" dy="-0.38184"/>
<feGaussianBlur stdDeviation="1.01824"/>
<feColorMatrix type="matrix" values="0 0 0 0 0.164706 0 0 0 0 0.0313726 0 0 0 0 0.329412 0 0 0 0.15 0"/>
<feBlend mode="normal" in2="BackgroundImageFix" result="effect1_dropShadow_178_47"/>
<feColorMatrix in="SourceAlpha" type="matrix" values="0 0 0 0 0 0 0 0 0 0 0 0 0 0 0 0 0 0 127 0" result="hardAlpha"/>
<feOffset dy="-2.58803"/>
<feGaussianBlur stdDeviation="1.48493"/>
<feColorMatrix type="matrix" values="0 0 0 0 0.164706 0 0 0 0 0.0313726 0 0 0 0 0.329412 0 0 0 0.13 0"/>
<feBlend mode="normal" in2="effect1_dropShadow_178_47" result="effect2_dropShadow_178_47"/>
<feColorMatrix in="SourceAlpha" type="matrix" values="0 0 0 0 0 0 0 0 0 0 0 0 0 0 0 0 0 0 127 0" result="hardAlpha"/>
<feOffset dy="-2.24719"/>
<feGaussianBlur stdDeviation="2.48196"/>
<feColorMatrix type="matrix" values="0 0 0 0 0.164706 0 0 0 0 0.0313726 0 0 0 0 0.329412 0 0 0 0.2 0"/>
<feBlend mode="normal" in2="effect2_dropShadow_178_47" result="effect3_dropShadow_178_47"/>
<feColorMatrix in="SourceAlpha" type="matrix" values="0 0 0 0 0 0 0 0 0 0 0 0 0 0 0 0 0 0 127 0" result="hardAlpha"/>
<feOffset dx="-13.322" dy="-6.19429"/>
<feGaussianBlur stdDeviation="2.94865"/>
<feColorMatrix type="matrix" values="0 0 0 0 0.164706 0 0 0 0 0.0313726 0 0 0 0 0.329412 0 0 0 0.02 0"/>
<feBlend mode="normal" in2="effect3_dropShadow_178_47" result="effect4_dropShadow_178_47"/>
<feBlend mode="normal" in="SourceGraphic" in2="effect4_dropShadow_178_47" result="shape"/>
</filter>
<clipPath id="paint1_angular_178_47_clip_path"><path d="M20.4029 15.5925L21.9865 23.241C22.081 23.6976 22.4779 24.0318 22.9436 24.0518C39.0253 24.7406 49.6075 24.8418 66.1797 24.0548C66.6374 24.0331 67.0285 23.7076 67.1286 23.2605L68.5532 16.8991C68.7267 16.1245 67.985 15.4559 67.2198 15.667C64.7285 16.3543 62.4777 16.584 58.8533 16.584C53.3078 16.584 43.5529 13.8311 38.7534 13.8311C34.842 13.8311 25.4204 14.2134 21.3608 14.3656C20.7299 14.3892 20.2748 14.9742 20.4029 15.5925Z"/></clipPath><filter id="filter1_dddd_178_47" x="4.32082" y="14.86" width="70.089" height="19.8131" filterUnits="userSpaceOnUse" color-interpolation-filters="sRGB">
<feFlood flood-opacity="0" result="BackgroundImageFix"/>
<feColorMatrix in="SourceAlpha" type="matrix" values="0 0 0 0 0 0 0 0 0 0 0 0 0 0 0 0 0 0 127 0" result="hardAlpha"/>
<feOffset dx="-0.6364" dy="-0.0848533"/>
<feGaussianBlur stdDeviation="0.678826"/>
<feColorMatrix type="matrix" values="0 0 0 0 0.152941 0 0 0 0 0.054902 0 0 0 0 0.305882 0 0 0 0.1 0"/>
<feBlend mode="normal" in2="BackgroundImageFix" result="effect1_dropShadow_178_47"/>
<feColorMatrix in="SourceAlpha" type="matrix" values="0 0 0 0 0 0 0 0 0 0 0 0 0 0 0 0 0 0 127 0" result="hardAlpha"/>
<feOffset dx="-2.46075" dy="-0.38184"/>
<feGaussianBlur stdDeviation="1.25159"/>
<feColorMatrix type="matrix" values="0 0 0 0 0.152941 0 0 0 0 0.054902 0 0 0 0 0.305882 0 0 0 0.09 0"/>
<feBlend mode="normal" in2="effect1_dropShadow_178_47" result="effect2_dropShadow_178_47"/>
<feColorMatrix in="SourceAlpha" type="matrix" values="0 0 0 0 0 0 0 0 0 0 0 0 0 0 0 0 0 0 127 0" result="hardAlpha"/>
<feOffset dy="-0.848533"/>
<feGaussianBlur stdDeviation="1.67585"/>
<feColorMatrix type="matrix" values="0 0 0 0 0.152941 0 0 0 0 0.054902 0 0 0 0 0.305882 0 0 0 0.05 0"/>
<feBlend mode="normal" in2="effect2_dropShadow_178_47" result="effect3_dropShadow_178_47"/>
<feColorMatrix in="SourceAlpha" type="matrix" values="0 0 0 0 0 0 0 0 0 0 0 0 0 0 0 0 0 0 127 0" result="hardAlpha"/>
<feOffset dx="-9.88541" dy="-1.52736"/>
<feGaussianBlur stdDeviation="1.99405"/>
<feColorMatrix type="matrix" values="0 0 0 0 0.152941 0 0 0 0 0.054902 0 0 0 0 0.305882 0 0 0 0.01 0"/>
<feBlend mode="normal" in2="effect3_dropShadow_178_47" result="effect4_dropShadow_178_47"/>
<feBlend mode="normal" in="SourceGraphic" in2="effect4_dropShadow_178_47" result="shape"/>
</filter>
<clipPath id="paint2_angular_178_47_clip_path"><path d="M71.0365 22.1918L69.263 30.7481C69.1684 31.2046 68.7712 31.5387 68.3055 31.5587C50.6189 32.3166 39.0098 32.4282 20.7836 31.5618C20.326 31.54 19.9345 31.2146 19.8343 30.7676L18.2199 23.5663C18.0463 22.7918 18.7878 22.1231 19.5518 22.3385C22.3484 23.1269 24.8334 23.3886 28.8851 23.3886C34.9611 23.3886 45.649 20.3755 50.9076 20.3755C55.2298 20.3755 65.6931 20.8012 70.0767 20.9648C70.7078 20.9883 71.1647 21.5734 71.0365 22.1918Z"/></clipPath><filter id="filter2_dddd_178_47" x="0.326687" y="17.1829" width="76.5732" height="26.8171" filterUnits="userSpaceOnUse" color-interpolation-filters="sRGB">
<feFlood flood-opacity="0" result="BackgroundImageFix"/>
<feColorMatrix in="SourceAlpha" type="matrix" values="0 0 0 0 0 0 0 0 0 0 0 0 0 0 0 0 0 0 127 0" result="hardAlpha"/>
<feOffset dx="-0.678826" dy="-0.296987"/>
<feGaussianBlur stdDeviation="0.82732"/>
<feColorMatrix type="matrix" values="0 0 0 0 0.211765 0 0 0 0 0.0705882 0 0 0 0 0.231373 0 0 0 0.12 0"/>
<feBlend mode="normal" in2="BackgroundImageFix" result="effect1_dropShadow_178_47"/>
<feColorMatrix in="SourceAlpha" type="matrix" values="0 0 0 0 0 0 0 0 0 0 0 0 0 0 0 0 0 0 127 0" result="hardAlpha"/>
<feOffset dy="-1.14552"/>
<feGaussianBlur stdDeviation="1.50615"/>
<feColorMatrix type="matrix" values="0 0 0 0 0.211765 0 0 0 0 0.0705882 0 0 0 0 0.231373 0 0 0 0.11 0"/>
<feBlend mode="normal" in2="effect1_dropShadow_178_47" result="effect2_dropShadow_178_47"/>
<feColorMatrix in="SourceAlpha" type="matrix" values="0 0 0 0 0 0 0 0 0 0 0 0 0 0 0 0 0 0 127 0" result="hardAlpha"/>
<feOffset/>
<feGaussianBlur stdDeviation="2"/>
<feColorMatrix type="matrix" values="0 0 0 0 0.211765 0 0 0 0 0.0705882 0 0 0 0 0.231373 0 0 0 0.06 0"/>
<feBlend mode="normal" in2="effect2_dropShadow_178_47" result="effect3_dropShadow_178_47"/>
<feColorMatrix in="SourceAlpha" type="matrix" values="0 0 0 0 0 0 0 0 0 0 0 0 0 0 0 0 0 0 127 0" result="hardAlpha"/>
<feOffset dx="-11.1582" dy="-4.6245"/>
<feGaussianBlur stdDeviation="2.41832"/>
<feColorMatrix type="matrix" values="0 0 0 0 0.211765 0 0 0 0 0.0705882 0 0 0 0 0.231373 0 0 0 0.02 0"/>
<feBlend mode="normal" in2="effect3_dropShadow_178_47" result="effect4_dropShadow_178_47"/>
<feBlend mode="normal" in="SourceGraphic" in2="effect4_dropShadow_178_47" result="shape"/>
</filter>
<clipPath id="paint3_angular_178_47_clip_path"><path d="M72.8812 28.2152L70.926 38.3773C70.8387 38.8313 70.46 39.1694 69.9987 39.1995C53.6595 40.2644 32.6224 40.267 19.0691 39.2072C18.625 39.1725 18.2622 38.8517 18.1649 38.417L16.3469 30.2929C16.1848 29.5684 16.8245 28.9198 17.5505 29.0754C22.0297 30.0352 29.9128 31.6719 34.5115 31.6719C41.0022 31.6719 51.5095 26.644 57.127 26.644C61.7201 26.644 68.1539 26.8732 71.9178 27.0043C72.543 27.0261 72.9994 27.6008 72.8812 28.2152Z"/></clipPath></defs>
</svg>
