<svg width="125" height="32" viewBox="0 0 125 32" fill="none" xmlns="http://www.w3.org/2000/svg">
<path d="M33.2803 21.1074C37.0262 21.1074 42.2732 21.2944 45.3428 21.4014C45.8526 21.4192 46.2253 21.8877 46.1289 22.3887L44.5342 30.6768C44.4629 31.0469 44.1535 31.3222 43.7773 31.3467C30.4518 32.2152 13.2949 32.2178 2.24121 31.3535C1.87912 31.3252 1.5833 31.0634 1.50391 30.709L0.0205078 24.083C-0.111585 23.4923 0.410099 22.9633 1.00195 23.0898C4.65497 23.8727 11.0844 25.2079 14.835 25.208C20.1286 25.208 28.6988 21.1074 33.2803 21.1074ZM28.207 15.9951C31.7319 15.9951 40.2653 16.3422 43.8408 16.4756C44.3554 16.4948 44.7283 16.9714 44.624 17.4756L43.9336 20.8018C40.8325 20.6951 36.5033 20.5576 33.2793 20.5576C32.0643 20.5577 30.6161 20.8278 29.0752 21.2148C27.529 21.6033 25.848 22.1209 24.165 22.6318C20.7619 23.665 17.3825 24.6582 14.835 24.6582C11.5836 24.6581 6.23549 23.6285 2.5 22.8457L1.54785 18.5967C1.4066 17.9652 2.01185 17.4202 2.63477 17.5957C4.9154 18.2386 6.94211 18.4521 10.2461 18.4521C15.2013 18.4521 23.9181 15.9953 28.207 15.9951ZM18.2949 10.6572C22.2094 10.6574 30.1658 12.9023 34.6885 12.9023C37.6441 12.9023 39.4801 12.7158 41.5117 12.1553C42.1356 11.9834 42.7409 12.5286 42.5996 13.1602L41.9951 15.8564C37.8877 15.6995 31.2258 15.4453 28.208 15.4453C26.0003 15.4453 22.6858 16.0732 19.3779 16.6826C16.0261 17.3001 12.6634 17.9023 10.2471 17.9023C7.79846 17.9023 6.0781 17.7833 4.44043 17.4629L3.3291 12.0938C3.22496 11.5897 3.59596 11.1131 4.11035 11.0938C7.4213 10.9697 15.1048 10.6573 18.2949 10.6572ZM22.1777 0C24.4018 0.000588016 27.5239 3.45996 29.9805 3.45996C31.8135 3.45964 34.6584 1.84518 36.79 0.223633C37.2821 -0.150578 38.0151 0.0849438 38.165 0.68457L40.9229 11.7373C39.1227 12.1903 37.3957 12.3525 34.6875 12.3525C32.4876 12.3525 29.4239 11.8037 26.3633 11.2393C23.3465 10.6829 20.3156 10.1075 18.2949 10.1074C15.469 10.1074 9.14402 10.3518 5.42578 10.4941L7.79004 0.751953C7.93777 0.143984 8.68484 -0.0974211 9.17383 0.292969C10.6949 1.50727 13.502 3.54688 15.1982 3.54688C17.3849 3.54672 19.9537 0 22.1777 0Z" fill="#F1F1F1"/>
<g style="mix-blend-mode:multiply">
<path d="M16.9284 30.2347H17.5116C17.4999 30.4258 17.4472 30.5955 17.3536 30.7437C17.2612 30.892 17.1319 31.0077 16.9654 31.0909C16.8003 31.1742 16.6013 31.2158 16.3686 31.2158C16.1865 31.2158 16.0233 31.1846 15.879 31.1221C15.7346 31.0584 15.6111 30.9674 15.5084 30.8491C15.407 30.7307 15.3296 30.5877 15.2763 30.42C15.223 30.2522 15.1963 30.0643 15.1963 29.8563V29.6593C15.1963 29.4512 15.2236 29.2633 15.2782 29.0956C15.3341 28.9265 15.4135 28.7828 15.5162 28.6645C15.6202 28.5462 15.7444 28.4552 15.8887 28.3914C16.0331 28.3277 16.1943 28.2959 16.3725 28.2959C16.6091 28.2959 16.8087 28.3388 16.9713 28.4246C17.1351 28.5104 17.2619 28.6287 17.3516 28.7796C17.4426 28.9304 17.4973 29.1021 17.5155 29.2945H16.9303C16.9238 29.1801 16.901 29.0832 16.862 29.0039C16.823 28.9233 16.7639 28.8628 16.6845 28.8225C16.6065 28.7809 16.5025 28.7601 16.3725 28.7601C16.2749 28.7601 16.1898 28.7783 16.1169 28.8147C16.0441 28.8511 15.983 28.9064 15.9336 28.9805C15.8842 29.0546 15.8471 29.1482 15.8224 29.2614C15.799 29.3732 15.7873 29.5045 15.7873 29.6554V29.8563C15.7873 30.0032 15.7984 30.1326 15.8205 30.2444C15.8426 30.3549 15.8764 30.4486 15.9219 30.5253C15.9687 30.6007 16.0285 30.6579 16.1013 30.6969C16.1755 30.7346 16.2645 30.7535 16.3686 30.7535C16.4908 30.7535 16.5916 30.734 16.6709 30.695C16.7502 30.656 16.8107 30.5981 16.8523 30.5214C16.8952 30.4447 16.9206 30.3491 16.9284 30.2347ZM20.2286 29.6905V29.8251C20.2286 30.0409 20.1994 30.2347 20.1408 30.4063C20.0823 30.578 19.9997 30.7242 19.8931 30.8452C19.7865 30.9648 19.6591 31.0565 19.5108 31.1202C19.3639 31.1839 19.2007 31.2158 19.0212 31.2158C18.8431 31.2158 18.6799 31.1839 18.5317 31.1202C18.3847 31.0565 18.2573 30.9648 18.1494 30.8452C18.0414 30.7242 17.9576 30.578 17.8978 30.4063C17.8392 30.2347 17.81 30.0409 17.81 29.8251V29.6905C17.81 29.4733 17.8392 29.2796 17.8978 29.1092C17.9563 28.9376 18.0388 28.7913 18.1455 28.6704C18.2534 28.5494 18.3808 28.4571 18.5278 28.3934C18.676 28.3297 18.8392 28.2978 19.0173 28.2978C19.1968 28.2978 19.36 28.3297 19.5069 28.3934C19.6552 28.4571 19.7826 28.5494 19.8892 28.6704C19.9971 28.7913 20.0804 28.9376 20.1389 29.1092C20.1987 29.2796 20.2286 29.4733 20.2286 29.6905ZM19.6376 29.8251V29.6866C19.6376 29.5357 19.624 29.4031 19.5966 29.2887C19.5693 29.1742 19.529 29.078 19.4757 29C19.4224 28.922 19.3574 28.8635 19.2807 28.8244C19.2039 28.7841 19.1162 28.764 19.0173 28.764C18.9185 28.764 18.8307 28.7841 18.754 28.8244C18.6786 28.8635 18.6142 28.922 18.5609 29C18.5089 29.078 18.4693 29.1742 18.4419 29.2887C18.4146 29.4031 18.401 29.5357 18.401 29.6866V29.8251C18.401 29.9746 18.4146 30.1072 18.4419 30.223C18.4693 30.3374 18.5096 30.4343 18.5629 30.5136C18.6162 30.5916 18.6812 30.6508 18.7579 30.6911C18.8346 30.7314 18.9224 30.7515 19.0212 30.7515C19.1201 30.7515 19.2078 30.7314 19.2846 30.6911C19.3613 30.6508 19.4257 30.5916 19.4777 30.5136C19.5297 30.4343 19.5693 30.3374 19.5966 30.223C19.624 30.1072 19.6376 29.9746 19.6376 29.8251ZM20.9171 28.3368H21.4126L22.1421 30.4219L22.8715 28.3368H23.367L22.341 31.1768H21.9431L20.9171 28.3368ZM20.6499 28.3368H21.1434L21.2331 30.3692V31.1768H20.6499V28.3368ZM23.1407 28.3368H23.6361V31.1768H23.051V30.3692L23.1407 28.3368ZM25.2551 30.1644H24.5314V29.708H25.2551C25.3669 29.708 25.4579 29.6898 25.5281 29.6534C25.5983 29.6157 25.6497 29.5637 25.6822 29.4974C25.7147 29.4311 25.731 29.3563 25.731 29.2731C25.731 29.1885 25.7147 29.1099 25.6822 29.0371C25.6497 28.9642 25.5983 28.9057 25.5281 28.8615C25.4579 28.8173 25.3669 28.7952 25.2551 28.7952H24.7343V31.1768H24.1491V28.3368H25.2551C25.4774 28.3368 25.6679 28.3771 25.8266 28.4578C25.9865 28.5371 26.1087 28.647 26.1932 28.7874C26.2778 28.9278 26.32 29.0884 26.32 29.2692C26.32 29.4525 26.2778 29.6112 26.1932 29.7451C26.1087 29.879 25.9865 29.9824 25.8266 30.0552C25.6679 30.128 25.4774 30.1644 25.2551 30.1644ZM26.7238 28.3368H27.7829C28.0001 28.3368 28.1867 28.3693 28.3427 28.4343C28.5 28.4994 28.621 28.5956 28.7055 28.723C28.79 28.8505 28.8323 29.0071 28.8323 29.1931C28.8323 29.3452 28.8063 29.4759 28.7543 29.5851C28.7035 29.6931 28.6314 29.7834 28.5378 29.8563C28.4454 29.9278 28.3369 29.985 28.212 30.0279L28.0267 30.1254H27.1061L27.1022 29.669H27.7868C27.8895 29.669 27.9747 29.6508 28.0423 29.6144C28.1099 29.578 28.1607 29.5273 28.1945 29.4623C28.2296 29.3972 28.2471 29.3218 28.2471 29.236C28.2471 29.145 28.2302 29.0663 28.1964 29C28.1626 28.9337 28.1112 28.883 28.0423 28.8479C27.9734 28.8127 27.8869 28.7952 27.7829 28.7952H27.3089V31.1768H26.7238V28.3368ZM28.3115 31.1768L27.6639 29.9109L28.2822 29.907L28.9376 31.1495V31.1768H28.3115ZM31.1885 30.7203V31.1768H29.6768V30.7203H31.1885ZM29.868 28.3368V31.1768H29.2828V28.3368H29.868ZM30.9915 29.4935V29.9382H29.6768V29.4935H30.9915ZM31.1865 28.3368V28.7952H29.6768V28.3368H31.1865Z" fill="white"/>
</g>
<path d="M113.294 11.7812C113.538 11.7812 113.871 12.0005 113.992 12.3594L115.993 17.2109L117.216 20.627L118.465 17.2109L120.465 12.3145C120.664 11.961 120.832 11.7813 121.262 11.7812H123.652C124.022 11.7808 124.405 12.1297 124.256 12.4736L118.847 24.9102C118.371 26.0485 117.887 27 117.394 27.7646C116.918 28.5464 116.315 29.1755 115.584 29.6514C114.895 30.1163 114.07 30.3584 113.108 30.3848V30.3916H111.713C111.274 30.3913 110.917 30.0345 110.917 29.5947V28.002C110.918 27.5623 111.274 27.2054 111.713 27.2051H111.916V27.2041H112.704C113.587 27.2041 114.276 26.7029 114.769 25.7002L115.355 24.4004L110.208 12.6582C110.01 12.2598 110.407 11.7617 111.105 11.7812H113.294ZM102.272 6.68359C102.712 6.6838 103.069 7.04064 103.069 7.48047V10.2686H103.068V19.2266C103.068 21.2146 102.558 22.727 101.539 23.7637C100.519 24.7833 98.9973 25.2939 96.9751 25.2939H96.4653C94.4431 25.2939 92.9215 24.7833 91.9019 23.7637C90.8824 22.727 90.3726 21.2146 90.3726 19.2266V17.4668C90.3726 15.5126 90.8486 14.0171 91.8003 12.9805C92.769 11.9269 94.1374 11.3994 95.9048 11.3994H96.4146C97.8587 11.3995 98.9549 11.8673 99.7026 12.8018L99.5503 10.9414V7.48047C99.5503 7.04061 99.9064 6.68374 100.346 6.68359H102.272ZM75.0884 11.3994C77.1108 11.3994 78.6321 11.9184 79.6519 12.9551C80.6715 13.9747 81.1811 15.4785 81.1812 17.4668V19.2256C81.1812 21.214 80.6716 22.727 79.6519 23.7637C78.6321 24.7834 77.1108 25.293 75.0884 25.293H74.7065C72.6841 25.293 71.1628 24.7834 70.1431 23.7637C69.1234 22.727 68.6138 21.2139 68.6138 19.2256V17.4668C68.6138 15.4786 69.1235 13.9747 70.1431 12.9551C71.1628 11.9184 72.6841 11.3994 74.7065 11.3994H75.0884ZM57.7886 6.68359C58.2286 6.68359 58.5854 7.04049 58.5854 7.48047V8.87402H58.5864V21.541H66.6372C67.0772 21.541 67.4341 21.8979 67.4341 22.3379V24.3135C67.434 24.7534 67.0772 25.1104 66.6372 25.1104H54.9409V7.48047C54.9409 7.04049 55.2978 6.68359 55.7378 6.68359H57.7886ZM90.6919 11.7822C89.9303 12.6618 89.393 13.7572 89.0806 15.0703H88.9272C88.1796 15.0704 87.5587 15.3346 87.0659 15.8613C86.5734 16.3881 86.3267 17.0679 86.3267 17.9004V24.9111H82.8091V17.5439C82.8091 15.6576 83.3272 14.2295 84.3638 13.2607C85.4174 12.2751 86.9138 11.7823 88.8511 11.7822H90.6919ZM108.062 6.68359C108.392 6.68385 108.66 6.95145 108.66 7.28125V10.2686H108.659V19.7363C108.659 20.45 108.83 20.9514 109.169 21.2402C109.509 21.5289 109.905 21.6738 110.754 21.6738H110.767V21.6729H110.966C111.296 21.6733 111.563 21.9408 111.563 22.2705V24.3135C111.563 24.6432 111.296 24.9107 110.966 24.9111H110.138C108.949 24.9111 107.988 24.7411 107.257 24.4014C106.544 24.0615 106.008 23.4921 105.651 22.6934C105.311 21.8947 105.141 20.8155 105.141 19.4561V10.2686H105.14V7.28125C105.14 6.95129 105.408 6.68359 105.738 6.68359H108.062ZM74.7573 14.6885C73.0239 14.6885 72.1567 15.5892 72.1567 17.3906V19.3027C72.1568 21.1211 73.0239 22.0302 74.7573 22.0303H75.0376C76.771 22.0303 77.6381 21.1211 77.6382 19.3027V17.3906C77.6382 15.5891 76.7711 14.6885 75.0376 14.6885H74.7573ZM96.5161 14.6885C94.7829 14.6886 93.9165 15.5893 93.9165 17.3906V19.3027C93.9165 21.1211 94.7828 22.0302 96.5161 22.0303H96.9497C98.6829 22.0301 99.5503 21.121 99.5503 19.3027V17.3906C99.5503 15.5893 98.6829 14.6886 96.9497 14.6885H96.5161Z" fill="#F1F1F1"/>
</svg>
